<?xml version="1.0" encoding="UTF-8"?><svg id="Layer_1" xmlns="http://www.w3.org/2000/svg" viewBox="0 0 840 700"><defs><style>.cls-1{fill:#cdff12;}.cls-2{fill:#cbd0d2;}.cls-3{fill:#e0ff80;}.cls-4{fill:#182b31;}.cls-5{fill:#9aa3a7;}</style></defs><polygon class="cls-3" points="575.28 30 441.24 30 441.24 143.6 814.3 393 814.3 189.73 575.28 30"/><polygon class="cls-2" points="398.76 30 264.72 30 25.7 189.73 25.7 393 398.76 143.61 398.76 30"/><polygon class="cls-5" points="398.76 556.39 25.7 307 25.7 510.26 264.72 670 398.76 670 398.76 556.39"/><path class="cls-4" d="M420,253.25h0c50.9,0,92.16,41.26,92.16,92.16v6.69c0,50.9-41.26,92.16-92.16,92.16h0c-50.9,0-92.16-41.26-92.16-92.16v-6.69c0-50.9,41.26-92.16,92.16-92.16Z"/><polygon class="cls-1" points="441.24 556.4 441.24 670 575.28 670 814.3 510.26 814.3 307 441.24 556.4"/></svg>