<?xml version="1.0" encoding="UTF-8" standalone="no"?>
<svg
   xmlns:dc="http://purl.org/dc/elements/1.1/"
   xmlns:cc="http://creativecommons.org/ns#"
   xmlns:rdf="http://www.w3.org/1999/02/22-rdf-syntax-ns#"
   xmlns:svg="http://www.w3.org/2000/svg"
   xmlns="http://www.w3.org/2000/svg"
   xmlns:sodipodi="http://sodipodi.sourceforge.net/DTD/sodipodi-0.dtd"
   xmlns:inkscape="http://www.inkscape.org/namespaces/inkscape"
   width="1757.88"
   height="250.00999"
   viewBox="0 0 1757.88 250.00999"
   fill="none"
   version="1.1"
   id="svg35"
   sodipodi:docname="idvision_logo_Gris.svg"
   inkscape:version="1.0.1 (3bc2e813f5, 2020-09-07)"
   inkscape:export-filename="C:\Users\jvall\Indeep\Comercial - General\0070. Marketing\012. Marca\010. Logotip ID Vision\PNG\logo\idvision_logo_Gris.png"
   inkscape:export-xdpi="245.75017"
   inkscape:export-ydpi="245.75017">
  <metadata
     id="metadata39">
    <rdf:RDF>
      <cc:Work
         rdf:about="">
        <dc:format>image/svg+xml</dc:format>
        <dc:type
           rdf:resource="http://purl.org/dc/dcmitype/StillImage" />
      </cc:Work>
    </rdf:RDF>
  </metadata>
  <sodipodi:namedview
     pagecolor="#ffffff"
     bordercolor="#666666"
     borderopacity="1"
     objecttolerance="10"
     gridtolerance="10"
     guidetolerance="10"
     inkscape:pageopacity="0"
     inkscape:pageshadow="2"
     inkscape:window-width="1920"
     inkscape:window-height="1009"
     id="namedview37"
     showgrid="false"
     inkscape:zoom="1.6764625"
     inkscape:cx="497.58099"
     inkscape:cy="143.40264"
     inkscape:window-x="1912"
     inkscape:window-y="-8"
     inkscape:window-maximized="1"
     inkscape:current-layer="g28"
     inkscape:document-rotation="0" />
  <g
     clip-path="url(#clip0_6_21)"
     id="g28">
    <path
       d="M 549.63,4.03003 H 498.72 V 47.18 l 141.71,94.73 v -77.2 z"
       fill="#cbd0d2"
       id="path2"
       style="fill:#cbd0d2;fill-opacity:0.5" />
    <path
       d="M 482.58,4.03003 H 431.67 L 340.87,64.71 v 77.2 L 482.58,47.18 Z"
       fill="#cbd0d2"
       id="path4"
       style="fill:#cbd0d2;fill-opacity:0.5" />
    <path
       d="M 482.58,203.98 340.87,109.25 v 77.21 l 90.8,60.67 h 50.91 z"
       fill="#9ba5a9"
       id="path6" />
    <path
       d="m 490.65,88.83 c 19.33,0 35.01,15.67 35.01,35.01 v 2.54 c 0,19.33 -15.67,35.01 -35.01,35.01 -19.33,0 -35.01,-15.67 -35.01,-35.01 v -2.54 c 0,-19.33 15.67,-35.01 35.01,-35.01 z"
       fill="#9ba5a9"
       id="path8" />
    <path
       d="m 498.72,203.98 v 43.15 h 50.91 l 90.8,-60.67 v -77.21 z"
       fill="#9ba5a9"
       id="path10" />
    <path
       d="M 53.09,4.03003 H 0 V 245.97 h 53.09 z"
       fill="#9ba5a9"
       id="path12" />
    <path
       d="m 85.35,4.03003 h 94.42 c 85.02,0 123.31,52.41997 123.31,120.96997 0,68.55 -38.3,120.97 -123.31,120.97 H 85.35 Z M 179.77,200.61 c 48.72,0 68.21,-33.26 68.21,-75.61 0,-42.35 -19.49,-75.6 -68.21,-75.6 h -41.34 v 151.21 z"
       fill="#9ba5a9"
       id="path14" />
    <path
       d="m 652.65,4.03003 h 56.46 L 773.29,198.59 836.13,4.03003 h 56.44 L 803.53,245.97 h -62.17 z"
       fill="#9ba5a9"
       id="path16" />
    <path
       d="M 960.48,4.03003 H 907.39 V 245.97 h 53.09 z"
       fill="#9ba5a9"
       id="path18" />
    <path
       d="m 981.3,164.99 h 51.75 c 0.67,34.61 26.21,42.67 54.77,42.67 26.21,0 44.02,-10.41 44.02,-29.57 0,-14.79 -8.06,-23.86 -56.78,-32.26 -61.5,-10.42 -88.37,-32.6 -88.37,-76.28 0,-40.32 35.62,-69.55 93.08,-69.55 64.18,0 98.12,30.91 100.13,81.65 h -51.07 c -1.35,-26.88 -16.8,-39.31 -49.06,-39.31 -23.52,0 -38.99,9.75 -38.99,25.54 0,15.79 8.07,24.86 53.1,32.6 71.57,12.09 92.74,34.94 92.74,74.6 0,49.39 -43.01,74.93 -100.8,74.93 -64.18,0 -104.17,-31.25 -104.51,-85.01 z"
       fill="#9ba5a9"
       id="path20" />
    <path
       d="m 1259.88,4.03003 h -53.09 V 245.97 h 53.09 z"
       fill="#9ba5a9"
       id="path22" />
    <path
       d="m 1282.05,125 c 0,-68.55 42.67,-125 121.98,-125 79.31,0 121.98,56.45 121.98,125 0,68.55 -42.34,125 -121.98,125 -79.64,0 -121.98,-56.45 -121.98,-125 z m 121.98,77.96 c 47.38,0 66.87,-35.62 66.87,-77.96 0,-42.34 -19.49,-77.96 -66.87,-77.96 -47.38,0 -66.87,35.62 -66.87,77.96 0,42.34 19.49,77.96 66.87,77.96 z"
       fill="#9ba5a9"
       id="path24" />
    <path
       d="m 1599.28,77.62 v 168.35 h -51.07 V 4.03003 H 1606 L 1707.15,172.72 V 4.03003 h 50.73 V 245.97 h -57.79 z"
       fill="#9ba5a9"
       id="path26" />
  </g>
  <defs
     id="defs33">
    <clipPath
       id="clip0_6_21">
      <rect
         width="1758"
         height="251"
         fill="#ffffff"
         id="rect30"
         x="0"
         y="0" />
    </clipPath>
  </defs>
</svg>
