<?xml version="1.0" encoding="UTF-8" standalone="no"?>
<svg
   xmlns:dc="http://purl.org/dc/elements/1.1/"
   xmlns:cc="http://creativecommons.org/ns#"
   xmlns:rdf="http://www.w3.org/1999/02/22-rdf-syntax-ns#"
   xmlns:svg="http://www.w3.org/2000/svg"
   xmlns="http://www.w3.org/2000/svg"
   xmlns:sodipodi="http://sodipodi.sourceforge.net/DTD/sodipodi-0.dtd"
   xmlns:inkscape="http://www.inkscape.org/namespaces/inkscape"
   id="Layer_1"
   viewBox="0 0 500 500"
   version="1.1"
   sodipodi:docname="idvision_favicon.svg"
   inkscape:export-filename="C:\Users\jvall\Indeep\Comercial - General\0070. Marketing\012. Marca\011. Favicon\idvision_favicon.png"
   inkscape:export-xdpi="98.5"
   inkscape:export-ydpi="98.5"
   inkscape:version="1.0.1 (3bc2e813f5, 2020-09-07)">
  <metadata
     id="metadata16">
    <rdf:RDF>
      <cc:Work
         rdf:about="">
        <dc:format>image/svg+xml</dc:format>
        <dc:type
           rdf:resource="http://purl.org/dc/dcmitype/StillImage" />
      </cc:Work>
    </rdf:RDF>
  </metadata>
  <sodipodi:namedview
     pagecolor="#ffffff"
     bordercolor="#666666"
     borderopacity="1"
     objecttolerance="10"
     gridtolerance="10"
     guidetolerance="10"
     inkscape:pageopacity="0"
     inkscape:pageshadow="2"
     inkscape:window-width="1920"
     inkscape:window-height="1009"
     id="namedview14"
     showgrid="false"
     inkscape:zoom="1.684"
     inkscape:cx="250"
     inkscape:cy="250"
     inkscape:window-x="1912"
     inkscape:window-y="-8"
     inkscape:window-maximized="1"
     inkscape:current-layer="Layer_1" />
  <defs
     id="defs4">
    <style
       id="style2">.cls-1{fill:#cdff12;}.cls-2{fill:#182b31;}.cls-3{fill:#e0ff80;opacity:.5;}</style>
  </defs>
  <rect
     class="cls-2"
     x=".5"
     y=".5"
     width="499"
     height="499"
     rx="133"
     ry="133"
     id="rect6" />
  <polygon
     id="polygon6"
     class="cls-3"
     points="259.43 107.98 259.43 158.39 425 269.08 425 178.87 318.92 107.98 259.43 107.98" />
  <polygon
     id="polygon8"
     class="cls-3"
     points="181.08 107.98 75 178.87 75 269.08 240.57 158.4 240.57 107.98 181.08 107.98" />
  <polygon
     id="polygon10"
     class="cls-1"
     points="75 230.92 75 321.13 181.08 392.02 240.57 392.02 240.57 341.6 75 230.92" />
  <path
     id="path12"
     class="cls-1"
     d="M250,207.06h0c22.59,0,40.9,18.31,40.9,40.9v2.97c0,22.59-18.31,40.9-40.9,40.9h0c-22.59,0-40.9-18.31-40.9-40.9v-2.97c0-22.59,18.31-40.9,40.9-40.9h0Z" />
  <polygon
     id="polygon14"
     class="cls-1"
     points="259.43 392.02 318.92 392.02 425 321.13 425 230.92 259.43 341.61 259.43 392.02" />
</svg>
